<svg id="ig" data-name="Layer 1"
  xmlns="http://www.w3.org/2000/svg"
  xmlns:xlink="http://www.w3.org/1999/xlink" viewBox="0 0 66.53 64.46">
  <style>
    .cls-1 {
      fill: #fff;
      stroke-miterlimit: 10;
      stroke-width: 1.75px;
      stroke: url(#linear-gradient);
    }

    .cls-2 {
      fill: url(#linear-gradient-2);
    }
  </style>
  <linearGradient id="linear-gradient" x1="18.27" y1="59.1" x2="48.22" y2="5.08" gradientUnits="userSpaceOnUse">
    <stop offset="0" stop-color="#f7923b"></stop>
    <stop offset="0.08" stop-color="#b04745"></stop>
    <stop offset="0.29" stop-color="#a33360"></stop>
    <stop offset="0.5" stop-color="#9a2672"></stop>
    <stop offset="0.64" stop-color="#972179"></stop>
    <stop offset="0.91" stop-color="#5e0e67"></stop>
  </linearGradient>
  <linearGradient id="linear-gradient-2" x1="23.96" y1="15.34" x2="42.54" y2="48.85" xlink:href="#linear-gradient"></linearGradient>
  <title>ig</title>
  <g id="Layer_2" data-name="Layer 2">
    <g id="provider-icon">
      <g id="instagram-icon">
        <path class="cls-1" d="M33.25,2.09a30,30,0,1,0,30,30A30,30,0,0,0,33.25,2.09Z"></path>
      </g>
    </g>
  </g>
  <path class="cls-2" d="M33.25,23.3a8.82,8.82,0,0,0,0,17.64v0a8.81,8.81,0,1,0,0-17.61Zm0,14.13a5.34,5.34,0,1,1,5.34-5.34A5.34,5.34,0,0,1,33.25,37.43Zm9.33-16a1.66,1.66,0,1,0,0,3.32v0a1.65,1.65,0,0,0,1.65-1.61v0A1.67,1.67,0,0,0,42.58,21.41Zm-2.33-5.95H26.19a9.6,9.6,0,0,0-9.57,9.63V39.15a9.6,9.6,0,0,0,9.63,9.57H40.31a9.61,9.61,0,0,0,9.57-9.63V25A9.6,9.6,0,0,0,40.25,15.46ZM46.4,39.09v.06a6.12,6.12,0,0,1-6.15,6.09H26.19a6.12,6.12,0,0,1-6.09-6.15V25a6.11,6.11,0,0,1,6.15-6.09H40.31a6.13,6.13,0,0,1,6.09,6.15Z"></path>
</svg>