<svg id="twitter" data-name="Layer 1"
  xmlns="http://www.w3.org/2000/svg" viewBox="0 0 64.84 62.73">
  <style>
    .cls-1 {
      fill: #fff;
      stroke: #009ad3;
      stroke-miterlimit: 10;
      stroke-width: 1.75px;
    }

    .cls-2 {
      fill: #009ad3;
    }
  </style>
  <g id="Layer_2" data-name="Layer 2">
    <g id="provider-icon">
      <path id="twitter-icon" class="cls-1" d="M32.42,1.36a30,30,0,1,0,30,30A30,30,0,0,0,32.42,1.36Z"></path>
    </g>
  </g>
  <path class="cls-2" d="M46.55,25.21v.9c0,9.14-7,19.67-19.68,19.67a19.54,19.54,0,0,1-10.6-3.1,15.2,15.2,0,0,0,1.65.09,13.81,13.81,0,0,0,8.59-3A6.9,6.9,0,0,1,20.05,35a7.15,7.15,0,0,0,1.3.12,7,7,0,0,0,1.83-.24,6.91,6.91,0,0,1-5.55-6.78V28a6.75,6.75,0,0,0,3.13.87,6.94,6.94,0,0,1-2.14-9.23,19.63,19.63,0,0,0,14.25,7.22,7.29,7.29,0,0,1-.15-1.48,6.91,6.91,0,0,1,12-4.73A14.11,14.11,0,0,0,49.11,19a6.87,6.87,0,0,1-3,3.82,13.28,13.28,0,0,0,4-1.09A13.89,13.89,0,0,1,46.55,25.21Z"></path>
</svg>