<?xml version="1.0" encoding="UTF-8"?><svg id="Layer_1" xmlns="http://www.w3.org/2000/svg" viewBox="0 0 180 180"><defs><style>.cls-1{fill:none;}.cls-2{fill:#e71922;}.cls-3{fill:#e60f19;}.cls-4{fill:#fefafa;}.cls-5{fill:#fbf5f6;}.cls-6{fill:#0c61a9;}</style></defs><g><path class="cls-3" d="M180,180H0V0H180V180ZM57,124.08c-9.76,2.16-18.65,4.89-26.53,10.15-12.56,8.4-12.54,18.88,0,27.32,6.01,4.05,12.72,6.58,19.66,8.46,21.07,5.68,42.45,6.36,63.98,3.47,10.45-1.4,20.64-3.83,30.23-8.38,4.39-2.08,8.55-4.56,11.81-8.25,5.17-5.86,5.15-12.14-.02-17.96-2.24-2.52-4.94-4.46-7.84-6.14-4.35-2.52-8.96-4.41-13.75-5.92-17.91-5.65-36.3-6.74-54.89-5.81-1.27,.06-2.68-.28-3.98,.93v18.55c1.15,.86,2.15,1.48,3.01,2.26,3.74,3.42,3.57,7.42-.4,10.61-5.94,4.77-18.22,4.69-23.97-.17-3.72-3.14-3.84-6.95-.39-10.31,1.05-1.03,2.71-1.38,3.47-3.33-.23-4.72,.32-9.86-.37-15.48ZM148.03,42.13C119.32,29.83,91.64,17.96,63.63,5.95V150.89c2.07-.08,3.85,.51,5.95-.61V75.81c26.02-11.17,51.68-22.19,78.44-33.68Z"/><path class="cls-4" d="M57,124.08c.69,5.61,.14,10.75,.37,15.48-.77,1.95-2.42,2.3-3.47,3.33-3.44,3.36-3.32,7.17,.39,10.31,5.75,4.85,18.03,4.94,23.97,.17,3.97-3.19,4.14-7.2,.4-10.61-.85-.78-1.85-1.4-3.01-2.26v-18.55c1.3-1.21,2.7-.87,3.98-.93,18.6-.92,36.99,.17,54.89,5.81,4.78,1.51,9.4,3.4,13.75,5.92,2.9,1.68,5.6,3.62,7.84,6.14,5.17,5.82,5.2,12.1,.02,17.96-3.26,3.69-7.41,6.17-11.81,8.25-9.59,4.55-19.78,6.98-30.23,8.38-21.54,2.89-42.91,2.21-63.98-3.47-6.95-1.87-13.65-4.41-19.66-8.46-12.53-8.44-12.55-18.92,0-27.32,7.88-5.27,16.77-7.99,26.53-10.15Zm66.83,21.07c-2.61-6.58-11.91-8.48-16.56-3.63-2.13,2.22-2,4.9,.34,7.01,4.8,4.33,12.93,2.74,16.22-3.38Z"/><path class="cls-5" d="M148.03,42.13c-26.76,11.49-52.42,22.51-78.44,33.68v74.47c-2.1,1.13-3.89,.53-5.95,.61V5.95c28.01,12,55.69,23.87,84.39,36.17Zm-54.15,2.41c2.52-3.38,6.16-5,8.17-8.49-3.9-1.2-7.64-.71-11.17-1.54-2.15-3.35-2.58-7.45-5.34-10.57-2.08,3.66-2.85,7.5-4.92,10.57-3.79,.92-7.64,.19-11.32,1.77,2.68,3.28,6.15,5.18,8.33,8.16-.21,3.96-2.04,7.46-1.92,11.85,3.66-2.16,6.89-4.06,10.11-5.95,3.41,2.01,6.53,3.84,10.54,6.21-.94-4.57-1.69-8.25-2.46-12Z"/><path class="cls-2" d="M123.83,145.15c-3.29,6.12-11.42,7.7-16.22,3.38-2.34-2.11-2.47-4.79-.34-7.01,4.65-4.85,13.95-2.95,16.56,3.63Z"/><path class="cls-6" d="M93.88,44.54c.77,3.75,1.53,7.43,2.46,12-4.02-2.36-7.13-4.2-10.54-6.21-3.21,1.89-6.44,3.8-10.11,5.95-.12-4.39,1.71-7.89,1.92-11.85-2.18-2.98-5.64-4.88-8.33-8.16,3.68-1.58,7.54-.85,11.32-1.77,2.07-3.07,2.84-6.91,4.92-10.57,2.76,3.12,3.2,7.22,5.34,10.57,3.53,.83,7.28,.35,11.17,1.54-2.01,3.49-5.65,5.11-8.17,8.49Z"/></g><rect id="_Slice_" class="cls-1" width="180" height="180"/></svg>